<svg id="dynamicSvg"><g id="complete"></g><path id="" class="active" data-description="description" d="M890,66 C889,65 887,65 885,65 C883,65 882,65 879,65 C876,67 876,68 875,69 C874,70 873,70 872,70 C870,71 866,71 862,73 C857,75 851,76 846,79 C845,79 844,79 841,79 C839,79 838,79 837,79 C836,79 834,79 833,79 C832,79 831,79 830,78 C829,77 827,77 825,77 C826,77 828,77 830,76 C834,73 836,71 836,69 C835,68 834,68 831,68 C829,69 828,70 828,71 C827,72 827,73 827,74 C829,76 833,76 836,76 C838,76 840,75 840,72 C840,71 840,70 839,68 C838,67 836,67 835,67 C833,67 831,66 829,67 C828,68 827,70 828,71 C830,72 832,72 837,73 C839,73 841,73 842,73 C843,74 844,73 842,70 C841,69 839,67 834,66 C832,66 829,66 828,66 C826,68 825,70 825,71 C826,72 828,72 831,73 C834,73 838,74 840,74 C841,74 840,73 835,71 C832,71 830,71 829,71 C828,71 827,72 827,73" stroke-width="0.005vw" stroke="#000" fill="none"></path><path id="" class="active" data-description="description" d="M889,65 C887,65 885,65 883,65 C882,65 879,65 876,67 C876,68 875,69 874,70 C873,70 872,70 870,71 C866,71 862,73 857,75 C851,76 846,79 845,79 C844,79 841,79 839,79 C838,79 837,79 836,79 C834,79 833,79 832,79 C831,79 830,78 829,77 C827,77 825,77 826,77 C828,77 830,76 834,73 C836,71 836,69 835,68 C834,68 831,68 829,69 C828,70 828,71 827,72 C827,73 827,74 829,76 C833,76 836,76 838,76 C840,75 840,72 840,71 C840,70 839,68 838,67 C836,67 835,67 833,67 C831,66 829,67 828,68 C827,70 828,71 830,72 C832,72 837,73 839,73 C841,73 842,73 843,74 C844,73 842,70 841,69 C839,67 834,66 832,66 C829,66 828,66 826,68 C825,70 825,71 826,72 C828,72 831,73 834,73 C838,74 840,74 841,74 C840,73 835,71 832,71 C830,71 829,71 828,71 C827,72 827,73 828,75" stroke-width="0.005vw" stroke="#000" fill="none"></path><path id="" class="active" data-description="description" d="M887,65 C885,65 883,65 882,65 C879,65 876,67 876,68 C875,69 874,70 873,70 C872,70 870,71 866,71 C862,73 857,75 851,76 C846,79 845,79 844,79 C841,79 839,79 838,79 C837,79 836,79 834,79 C833,79 832,79 831,79 C830,78 829,77 827,77 C825,77 826,77 828,77 C830,76 834,73 836,71 C836,69 835,68 834,68 C831,68 829,69 828,70 C828,71 827,72 827,73 C827,74 829,76 833,76 C836,76 838,76 840,75 C840,72 840,71 840,70 C839,68 838,67 836,67 C835,67 833,67 831,66 C829,67 828,68 827,70 C828,71 830,72 832,72 C837,73 839,73 841,73 C842,73 843,74 844,73 C842,70 841,69 839,67 C834,66 832,66 829,66 C828,66 826,68 825,70 C825,71 826,72 828,72 C831,73 834,73 838,74 C840,74 841,74 840,73 C835,71 832,71 830,71 C829,71 828,71 827,72" stroke-width="0.005vw" stroke="#000" fill="none"></path></svg>